<svg width="51" height="50" viewBox="0 0 51 50" fill="none" xmlns="http://www.w3.org/2000/svg">
<path d="M24.6982 0.644393C25.0263 -0.211957 26.2378 -0.211955 26.5659 0.644395L29.6731 8.75536C29.9092 9.37174 30.6672 9.5943 31.1991 9.20343L38.1982 4.05995C38.9371 3.5169 39.9563 4.1719 39.7693 5.06967L37.9982 13.5729C37.8636 14.2191 38.3809 14.8162 39.0397 14.7749L47.7085 14.2319C48.6237 14.1746 49.127 15.2766 48.4843 15.9308L42.3971 22.1266C41.9345 22.5975 42.0469 23.3794 42.6234 23.7009L50.2096 27.9308C51.0106 28.3774 50.8382 29.5766 49.9439 29.7794L41.4732 31.7007C40.8295 31.8467 40.5014 32.5653 40.8126 33.1474L44.9076 40.8072C45.34 41.6159 44.5466 42.5316 43.6846 42.2187L35.5199 39.2554C34.8995 39.0302 34.2349 39.4573 34.182 40.1153L33.4857 48.7731C33.4122 49.6872 32.2498 50.0285 31.6937 49.2993L26.4273 42.3923C26.027 41.8674 25.2371 41.8674 24.8368 42.3923L19.5703 49.2993C19.0143 50.0285 17.8519 49.6872 17.7784 48.7731L17.0821 40.1153C17.0292 39.4573 16.3646 39.0302 15.7442 39.2554L7.57951 42.2187C6.71749 42.5316 5.92411 41.6159 6.35647 40.8072L10.4515 33.1474C10.7627 32.5653 10.4346 31.8467 9.79084 31.7007L1.32023 29.7794C0.425907 29.5766 0.25349 28.3774 1.05444 27.9308L8.64064 23.7009C9.21714 23.3794 9.32957 22.5975 8.86698 22.1266L2.77977 15.9308C2.13709 15.2766 2.64038 14.1746 3.55562 14.2319L12.2244 14.7749C12.8832 14.8162 13.4005 14.2191 13.2659 13.5729L11.4948 5.06967C11.3078 4.1719 12.327 3.5169 13.0659 4.05995L20.065 9.20343C20.5969 9.5943 21.3549 9.37174 21.591 8.75536L24.6982 0.644393Z" fill="#030211"/>
</svg>
